<?xml version="1.0" standalone="no"?>
<!DOCTYPE svg PUBLIC "-//W3C//DTD SVG 20010904//EN"
 "http://www.w3.org/TR/2001/REC-SVG-20010904/DTD/svg10.dtd">
<svg version="1.0" xmlns="http://www.w3.org/2000/svg"
 width="512.000000pt" height="512.000000pt" viewBox="0 0 512.000000 512.000000"
 preserveAspectRatio="xMidYMid meet">

<g transform="translate(0.000000,512.000000) scale(0.100000,-0.100000)"
fill="#000000" stroke="none">
<path d="M1760 3646 l-635 -1031 1 -55 c0 -51 18 -92 286 -633 l287 -577 856
2 857 3 295 584 c283 560 295 585 291 630 -4 41 -83 174 -639 1077 l-634 1031
-5 -726 c-5 -703 -6 -727 -25 -760 -56 -94 -214 -94 -270 0 -19 33 -20 57 -25
760 l-5 726 -635 -1031z m880 -878 c72 -50 75 -59 75 -262 l0 -183 -27 -35
c-53 -69 -146 -84 -218 -35 -64 43 -71 71 -68 264 3 156 5 174 24 200 35 48
82 73 134 73 32 0 57 -7 80 -22z"/>
<path d="M1470 1015 c-62 -20 -118 -69 -146 -129 -21 -44 -24 -66 -24 -165 0
-62 5 -132 12 -155 16 -55 99 -138 154 -154 60 -17 2128 -17 2188 0 26 8 60
31 92 63 66 66 77 107 72 262 -4 135 -20 179 -85 232 -76 63 -33 61 -1177 60
-862 0 -1049 -3 -1086 -14z"/>
</g>
</svg>
